<svg width="24" height="24" viewBox="0 0 24 24" fill="none" xmlns="http://www.w3.org/2000/svg">
<path d="M18.2222 11H5.77778C4.79594 11 4 11.8954 4 13V20C4 21.1046 4.79594 22 5.77778 22H18.2222C19.2041 22 20 21.1046 20 20V13C20 11.8954 19.2041 11 18.2222 11Z" stroke="#3F311C" stroke-width="2" stroke-linecap="round" stroke-linejoin="round"/>
<path d="M8 11V7C8 5.67392 8.42143 4.40215 9.17157 3.46447C9.92172 2.52678 10.9391 2 12 2C13.0609 2 14.0783 2.52678 14.8284 3.46447C15.5786 4.40215 16 5.67392 16 7V11" stroke="#3F311C" stroke-width="2" stroke-linecap="round" stroke-linejoin="round"/>
</svg>
